<svg width="323" height="297" viewBox="0 0 323 297" fill="none" xmlns="http://www.w3.org/2000/svg">
<g filter="url(#filter0_d_12246_4196)">
<rect width="311" height="285" transform="translate(3 3)" fill="#F7E6D5"/>
<path d="M163.595 38.0005C166.458 38.0005 168.888 39.5697 170.532 41.7886C171.78 43.4727 172.631 45.5905 172.969 47.9106C176.255 48.3674 179.18 50.2598 180.943 53.0767H181.036L181.579 54.2192C182.776 56.7392 185.321 58.35 188.116 58.3501H253.095C254.835 56.4942 257.307 55.3335 260.053 55.3335C265.322 55.3336 269.591 59.6019 269.591 64.8706C269.591 67.36 268.636 69.6255 267.075 71.3237L288.281 114.861H298.867L298.146 117.406C296.593 122.891 291.652 127.389 285.169 130.478C278.626 133.595 270.2 135.441 261.061 135.441C251.921 135.441 243.494 133.595 236.951 130.478C230.469 127.389 225.528 122.891 223.975 117.406L223.254 114.861H231.154L252.603 70.8247C252.554 70.7637 252.505 70.7024 252.458 70.6401H182.4V75.2632C182.4 78.3961 181.193 81.2444 179.222 83.3745L185.842 89.0444L187.328 90.3169L186.089 91.8296C176.442 103.617 171.894 119.617 171.094 138.829V193.992C174.652 194.146 177.491 197.081 177.491 200.677V207.114C177.491 208.666 176.96 210.093 176.073 211.228C176.964 212.428 177.491 213.913 177.491 215.521V217.096H177.499V219.096C177.499 225.204 182.451 230.156 188.559 230.156H206.768C213.076 230.156 218.189 235.27 218.189 241.578C218.189 247.886 213.076 253 206.768 253H119.36C113.052 253 107.938 247.886 107.938 241.578C107.938 235.27 113.052 230.156 119.36 230.156H137.569C143.677 230.156 148.629 225.204 148.629 219.096V215.521C148.629 213.913 149.155 212.427 150.045 211.228C149.158 210.093 148.628 208.665 148.628 207.114V200.677C148.628 197.078 151.472 194.142 155.034 193.992V138.609C154.216 119.464 149.668 103.517 140.046 91.7603L138.808 90.2466L140.293 88.9751L146.875 83.3345C144.925 81.2074 143.735 78.3734 143.735 75.2632V70.6401H74.7402C74.5598 70.8774 74.3684 71.1056 74.167 71.3247L95.373 114.861H105.968L105.247 117.406C103.693 122.891 98.7531 127.389 92.2705 130.478C85.7276 133.595 77.3007 135.441 68.1611 135.441C59.0217 135.441 50.5955 133.595 44.0527 130.478C37.5701 127.389 32.6299 122.891 31.0762 117.406L30.3545 114.861H38.2305L59.6846 70.812C58.3853 69.1823 57.6074 67.1177 57.6074 64.8706C57.6076 59.6018 61.8766 55.3335 67.1455 55.3335C69.8913 55.3335 72.3635 56.4942 74.1035 58.3501H138.353C141.148 58.35 143.693 56.7385 144.89 54.2183C146.632 50.5472 150.215 48.1208 154.231 47.8315C154.577 45.5423 155.424 43.4536 156.657 41.7886C158.301 39.5697 160.732 38.0005 163.595 38.0005ZM262.805 114.861H281.313L262.805 76.8618V114.861ZM238.122 114.861H256.548V77.0317L238.122 114.861ZM69.9053 114.861H88.4053L69.9053 76.8784V114.861ZM45.1982 114.861H63.6406V76.9985L45.1982 114.861Z" fill="#F3832D" stroke="#F3832D" stroke-width="4"/>
</g>
<defs>
<filter id="filter0_d_12246_4196" x="-0.5" y="0" width="324" height="297" filterUnits="userSpaceOnUse" color-interpolation-filters="sRGB">
<feFlood flood-opacity="0" result="BackgroundImageFix"/>
<feColorMatrix in="SourceAlpha" type="matrix" values="0 0 0 0 0 0 0 0 0 0 0 0 0 0 0 0 0 0 127 0" result="hardAlpha"/>
<feOffset dx="3" dy="3"/>
<feGaussianBlur stdDeviation="3"/>
<feComposite in2="hardAlpha" operator="out"/>
<feColorMatrix type="matrix" values="0 0 0 0 0 0 0 0 0 0 0 0 0 0 0 0 0 0 0.25 0"/>
<feBlend mode="normal" in2="BackgroundImageFix" result="effect1_dropShadow_12246_4196"/>
<feBlend mode="normal" in="SourceGraphic" in2="effect1_dropShadow_12246_4196" result="shape"/>
</filter>
</defs>
</svg>
